<svg width="276" height="272" viewBox="0 0 276 272" fill="none" xmlns="http://www.w3.org/2000/svg">
<path d="M93.0001 21C86.2337 26.52 84.3 30.3649 83.0001 39C80.837 53.3694 92.45 73.0764 92.9813 73.9686C92.9984 73.9972 93.0084 74.0144 93.0249 74.0433C95.6425 78.6242 89.4674 83.1013 85.9193 79.1965C85.8969 79.1718 85.8834 79.1568 85.8614 79.1317C85.1746 78.3479 70.0221 61.2162 55.6888 58.8333C47.0747 57.4012 42.8204 58.052 35.4796 62.7815C27.1099 68.174 29.0866 74.5239 22.0239 81.5416C15.2695 88.2531 7.26954 91.354 4.45486 100.017C1.64017 108.679 6.28956 115.89 7.80909 125.29C9.39799 135.119 4.06645 139.094 7.66811 148.377C10.827 156.518 13.8862 159.545 21.697 163.449C34.6943 169.947 57.0247 164.992 58.0384 164.763C58.0708 164.755 58.0904 164.751 58.123 164.744C63.2929 163.669 65.6439 170.932 60.8302 173.103C60.7995 173.117 60.7805 173.125 60.7495 173.138C59.7825 173.553 38.8153 182.669 32.1214 195.561C28.0975 203.311 27.4019 207.559 29.6315 216.001C32.1736 225.628 38.8235 225.71 43.3153 234.596C47.611 243.094 48.0881 251.66 55.4571 257.014C62.826 262.368 71.1208 260.174 80.5301 261.634C90.3689 263.16 92.5021 269.459 102.443 268.902C111.162 268.414 114.986 266.44 121.113 260.218C131.309 249.864 133.498 227.094 133.592 226.061C133.595 226.028 133.597 226.008 133.601 225.975C134.176 220.733 141.799 220.725 142.373 225.966C142.377 225.999 142.379 226.019 142.382 226.052C142.476 227.086 144.665 249.856 154.861 260.209C160.988 266.431 164.812 268.405 173.531 268.894C183.472 269.451 185.605 263.152 195.444 261.626C204.853 260.166 213.148 262.36 220.517 257.006C227.886 251.652 228.363 243.085 232.659 234.588C237.151 225.702 243.801 225.62 246.343 215.993C248.572 207.55 247.877 203.303 243.853 195.553C237.156 182.655 216.174 173.537 215.223 173.13C215.193 173.117 215.175 173.109 215.145 173.095C210.353 170.936 212.738 163.717 217.883 164.791C217.914 164.798 217.931 164.801 217.962 164.809C218.936 165.029 241.297 170 254.307 163.496C262.117 159.591 265.177 156.564 268.336 148.423C271.937 139.141 266.606 135.166 268.195 125.337C269.714 115.937 274.363 108.726 271.549 100.063C268.734 91.4005 260.734 88.2996 253.98 81.5881C246.917 74.5704 248.894 68.2205 240.524 62.828C233.183 58.0985 228.929 57.4476 220.315 58.8797C205.995 61.2604 190.858 78.3621 190.144 79.1759C190.121 79.202 190.106 79.2188 190.083 79.2444C186.522 83.1572 180.35 78.6372 182.975 74.0435C182.992 74.0145 183.002 73.997 183.019 73.9683C183.552 73.0728 195.163 53.3681 193 39C191.7 30.3649 189.767 26.52 183 21C175.285 14.7063 169.857 18.5484 161 14C152.53 9.65015 147.109 3 138 3C128.892 3 123.47 9.65015 115 14C106.143 18.5484 100.715 14.7063 93.0001 21Z" fill="url(#paint0_radial_4_1313)" stroke="black" stroke-width="6"/>
<path d="M36 56.4645V48.5355C36 46.2718 36.8993 44.1007 38.5 42.5C40.1007 40.8993 42.2718 40 44.5355 40H112.464C114.728 40 116.899 40.8993 118.5 42.5C120.101 44.1007 121 46.2718 121 48.5355V56.4645C121 58.7282 120.101 60.8993 118.5 62.5L117.036 63.9645C116.372 64.6275 115.473 65 114.536 65C112.583 65 111 66.5829 111 68.5355V110.277C111 113.865 115.338 115.662 117.875 113.125L162.982 68.0178C164.096 66.9041 163.307 65 161.732 65C161.263 65 160.814 64.8138 160.482 64.4822L158.5 62.5C156.899 60.8993 156 58.7282 156 56.4645V48.5355C156 46.2718 156.899 44.1007 158.5 42.5C160.101 40.8993 162.272 40 164.536 40H232.464C234.728 40 236.899 40.8993 238.5 42.5C240.101 44.1007 241 46.2718 241 48.5355V56.4645C241 58.7282 240.101 60.8993 238.5 62.5L237.776 63.2243C236.639 64.3613 235.097 65 233.489 65C231.894 65 230.364 65.6283 229.229 66.7488L76.8422 217.231C73.099 220.927 68.0501 223 62.7893 223H54.5355C52.2718 223 50.1007 222.101 48.5 220.5C46.8993 218.899 46 216.728 46 214.464V145V68.5355C46 66.5829 44.4171 65 42.4645 65C41.5268 65 40.6275 64.6275 39.9645 63.9645L38.5 62.5C36.8993 60.8993 36 58.7282 36 56.4645Z" fill="#E2E2E2" stroke="black" stroke-width="6"/>
<path d="M131.546 150.634L133.61 141.691C133.865 140.586 134.425 139.575 135.227 138.773C136.362 137.638 137.902 137 139.507 137H147.185C148.347 137 149.462 137.462 150.283 138.283C151.351 139.351 151.794 140.894 151.454 142.366L149.39 151.309C149.135 152.414 148.575 153.425 147.773 154.227C146.638 155.362 145.098 156 143.493 156H135.815C134.653 156 133.538 155.538 132.717 154.717C131.649 153.649 131.206 152.106 131.546 150.634Z" fill="#E2E2E2" stroke="black" stroke-width="6"/>
<path d="M132.149 162H126.123C124.288 162 122.688 163.249 122.243 165.03L121.731 167.074C121.36 168.56 122.484 170 124.016 170C125.538 170 126.66 171.422 126.306 172.902L119.454 201.556C117.692 208.923 123.277 216 130.851 216H136.877C138.712 216 140.312 214.751 140.757 212.97L141.269 210.926C141.64 209.44 140.516 208 138.984 208C137.462 208 136.34 206.578 136.694 205.098L143.546 176.444C145.308 169.077 139.723 162 132.149 162Z" fill="#E2E2E2" stroke="black" stroke-width="6"/>
<path d="M156.373 172.885L150.129 201.606C148.52 209.006 154.158 216 161.73 216H167.877C169.712 216 171.312 214.751 171.757 212.97L172.278 210.887C172.645 209.421 171.536 208 170.024 208C168.498 208 167.386 206.553 167.779 205.078L173.658 183.032C174.449 180.064 177.137 178 180.207 178C184.652 178 187.893 182.205 186.762 186.503L182.758 201.721C180.858 208.939 186.302 216 193.765 216H199.146C201.392 216 203.331 214.427 203.794 212.229L204.403 209.336C204.711 207.874 203.596 206.5 202.102 206.5C200.545 206.5 199.417 205.013 199.838 203.513L205.605 182.971C206.43 180.032 209.11 178 212.163 178C216.63 178 219.888 182.226 218.751 186.546L214.758 201.721C212.858 208.939 218.302 216 225.765 216H231.146C233.392 216 235.331 214.427 235.794 212.229L236.4 209.349C236.709 207.88 235.589 206.5 234.089 206.5C232.533 206.5 231.402 205.021 231.81 203.519L240.906 170.026C241.57 167.582 240.72 164.976 238.742 163.394C237.614 162.491 236.213 162 234.769 162H226.606C224.255 162 221.956 162.696 220 164L218.642 164.906C217.571 165.619 216.314 166 215.027 166H213.236C211.866 166 210.613 165.226 210 164C209.387 162.774 208.134 162 206.764 162H194.606C192.255 162 189.956 162.696 188 164L186.883 164.745C185.655 165.563 184.213 166 182.737 166H181.5C179.926 166 178.444 165.259 177.5 164C176.556 162.741 175.074 162 173.5 162H156.123C154.288 162 152.688 163.249 152.243 165.03L151.739 167.043C151.364 168.545 152.5 170 154.048 170C155.565 170 156.695 171.402 156.373 172.885Z" fill="#E2E2E2" stroke="black" stroke-width="6"/>
<path d="M208.981 152.5V137.126C208.981 136.855 208.762 136.636 208.491 136.636C208.22 136.636 208 136.416 208 136.145V135.818C208 135.366 208.366 135 208.818 135H214.051C214.503 135 214.869 135.366 214.869 135.818V136.145C214.869 136.416 214.649 136.636 214.379 136.636C214.108 136.636 213.888 136.855 213.888 137.126V138.023C213.888 139.282 215.43 139.89 216.289 138.969L218.001 137.136C218.178 136.946 218.043 136.636 217.783 136.636C217.619 136.636 217.486 136.503 217.486 136.338V135.818C217.486 135.366 217.852 135 218.304 135H223.537C223.989 135 224.355 135.366 224.355 135.818V135.949C224.355 136.328 224.048 136.636 223.669 136.636C223.48 136.636 223.3 136.713 223.171 136.849L218.285 141.992C217.63 142.682 217.551 143.738 218.096 144.517L223.835 152.715C223.956 152.888 224.153 152.991 224.364 152.991C224.72 152.991 225.009 153.28 225.009 153.636V153.808C225.009 154.26 224.643 154.626 224.192 154.626H218.958C218.506 154.626 218.14 154.26 218.14 153.808V153.325C218.14 153.14 218.29 152.991 218.475 152.991C218.746 152.991 218.904 152.684 218.747 152.463L214.278 146.161C214.157 145.99 213.888 146.076 213.888 146.285V152.5C213.888 152.771 214.108 152.991 214.379 152.991C214.649 152.991 214.869 153.21 214.869 153.481V153.808C214.869 154.26 214.503 154.626 214.051 154.626H208.818C208.366 154.626 208 154.26 208 153.808V153.481C208 153.21 208.22 152.991 208.491 152.991C208.762 152.991 208.981 152.771 208.981 152.5Z" fill="#903030"/>
<path fill-rule="evenodd" clip-rule="evenodd" d="M243 140.397C243 136.655 238.947 135.319 237.974 135.053C237.836 135.015 237.694 135 237.55 135L228.972 135C227.867 135 226.972 135.895 226.972 137V152.5C226.972 152.771 226.752 152.991 226.481 152.991C226.21 152.991 225.991 153.21 225.991 153.481V153.808C225.991 154.26 226.357 154.626 226.808 154.626H232.042C232.494 154.626 232.86 154.26 232.86 153.808V153.481C232.86 153.21 232.64 152.991 232.369 152.991C232.098 152.991 231.878 152.771 231.878 152.5V147.589C231.878 147.14 232.243 146.776 232.692 146.776C232.969 146.776 233.227 146.917 233.377 147.151L236.77 152.456C236.918 152.688 236.752 152.991 236.478 152.991C236.286 152.991 236.131 153.146 236.131 153.338V153.808C236.131 154.26 236.497 154.626 236.949 154.626H242.031C242.566 154.626 243 154.192 243 153.657V153.325C243 152.973 242.715 152.688 242.363 152.688C242.148 152.688 241.948 152.58 241.83 152.4L239.744 149.217C238.919 147.959 239.766 146.108 240.939 145.167C242.03 144.291 243 142.829 243 140.397ZM233.841 138.925C232.757 138.925 231.878 139.804 231.878 140.888C231.878 141.972 232.757 142.85 233.841 142.85H236.384C236.384 142.85 236.384 142.85 236.384 142.85C236.384 142.85 238.093 142.85 238.093 140.888C238.093 138.925 236.384 138.925 236.384 138.925C236.384 138.925 236.384 138.925 236.384 138.925H233.841Z" fill="#903030"/>
<defs>
<radialGradient id="paint0_radial_4_1313" cx="0" cy="0" r="1" gradientUnits="userSpaceOnUse" gradientTransform="translate(138.002 135.968) rotate(90.0006) scale(187.532 189.598)">
<stop stop-color="#FFB9BC"/>
<stop offset="1" stop-color="#F7E6FF"/>
</radialGradient>
</defs>
</svg>
