<svg width="275" height="272" viewBox="0 0 275 272" fill="none" xmlns="http://www.w3.org/2000/svg">
<path d="M92.4323 21C85.6658 26.52 83.7322 30.3649 82.4323 39C80.2243 53.667 92.3692 73.8951 92.432 73.9996L92.4351 74.0049L110.17 105.041C110.466 105.56 109.768 106.067 109.366 105.625L85.3216 79.1636L85.3175 79.1591C85.2372 79.0667 69.7523 61.2657 55.121 58.8333C46.5068 57.4012 42.2525 58.052 34.9118 62.7815C26.542 68.174 28.5187 74.5239 21.456 81.5416C14.7016 88.2531 6.70167 91.354 3.88699 100.017C1.0723 108.679 5.72169 115.89 7.24122 125.29C8.83012 135.119 3.49857 139.094 7.10024 148.377C10.2591 156.518 13.3183 159.545 21.1291 163.449C34.396 170.082 57.387 164.782 57.5058 164.755L57.5118 164.753L92.5133 157.476C93.0983 157.355 93.3653 158.176 92.8206 158.422L60.2214 173.121L60.2158 173.124C60.1021 173.172 38.3881 182.398 31.5535 195.561C27.5296 203.311 26.834 207.559 29.0636 216.001C31.6057 225.628 38.2556 225.71 42.7475 234.596C47.0432 243.094 47.5203 251.66 54.8892 257.014C62.2581 262.368 70.553 260.174 79.9622 261.634C89.801 263.16 91.9342 269.459 101.875 268.902C110.594 268.414 114.418 266.44 120.545 260.218C130.953 249.65 133.017 226.146 133.028 226.025L133.028 226.019L136.923 190.49C136.988 189.896 137.852 189.896 137.917 190.49L141.81 226.01L141.811 226.016C141.821 226.138 143.886 249.641 154.293 260.209C160.42 266.431 164.245 268.405 172.963 268.894C182.904 269.451 185.037 263.152 194.876 261.626C204.285 260.166 212.58 262.36 219.949 257.006C227.318 251.652 227.795 243.085 232.091 234.588C236.583 225.702 243.233 225.62 245.775 215.993C248.004 207.55 247.309 203.303 243.285 195.553C236.45 182.389 214.735 173.163 214.623 173.116L214.617 173.113L182.045 158.437C181.5 158.191 181.767 157.369 182.352 157.491L217.356 164.8L217.362 164.801C217.476 164.828 240.471 170.129 253.739 163.496C261.55 159.591 264.609 156.564 267.768 148.423C271.369 139.141 266.038 135.166 267.627 125.337C269.146 115.937 273.796 108.726 270.981 100.063C268.166 91.4005 260.166 88.2996 253.412 81.5881C246.349 74.5704 248.326 68.2205 239.956 62.828C232.615 58.0985 228.361 57.4476 219.747 58.8797C205.117 61.312 189.634 79.1098 189.55 79.2055L189.546 79.2103L165.49 105.641C165.088 106.082 164.39 105.575 164.686 105.056L182.429 74.0049L182.432 73.9996C182.495 73.8951 194.64 53.667 192.432 39C191.132 30.3649 189.199 26.52 182.432 21C174.717 14.7063 169.289 18.5484 160.432 14C151.962 9.65015 146.541 3 137.432 3C128.324 3 122.902 9.65015 114.432 14C105.575 18.5484 100.147 14.7063 92.4323 21Z" fill="url(#paint0_radial_5_1452)"/>
<path d="M92.4323 21C85.6658 26.52 83.7322 30.3649 82.4323 39C80.2243 53.667 92.3692 73.8951 92.432 73.9996L92.4351 74.0049L110.17 105.041C110.466 105.56 109.768 106.067 109.366 105.625L85.3216 79.1636L85.3175 79.1591C85.2372 79.0667 69.7523 61.2657 55.121 58.8333C46.5068 57.4012 42.2525 58.052 34.9118 62.7815C26.542 68.174 28.5187 74.5239 21.456 81.5416C14.7016 88.2531 6.70167 91.354 3.88699 100.017C1.0723 108.679 5.72169 115.89 7.24122 125.29C8.83012 135.119 3.49857 139.094 7.10024 148.377C10.2591 156.518 13.3183 159.545 21.1291 163.449C34.396 170.082 57.387 164.782 57.5058 164.755L57.5118 164.753L92.5133 157.476C93.0983 157.355 93.3653 158.176 92.8206 158.422L60.2214 173.121L60.2158 173.124C60.1021 173.172 38.3881 182.398 31.5535 195.561C27.5296 203.311 26.834 207.559 29.0636 216.001C31.6057 225.628 38.2556 225.71 42.7475 234.596C47.0432 243.094 47.5203 251.66 54.8892 257.014C62.2581 262.368 70.553 260.174 79.9622 261.634C89.801 263.16 91.9342 269.459 101.875 268.902C110.594 268.414 114.418 266.44 120.545 260.218C130.953 249.65 133.017 226.146 133.028 226.025L133.028 226.019L136.923 190.49C136.988 189.896 137.852 189.896 137.917 190.49L141.81 226.01L141.811 226.016C141.821 226.138 143.886 249.641 154.293 260.209C160.42 266.431 164.245 268.405 172.963 268.894C182.904 269.451 185.037 263.152 194.876 261.626C204.285 260.166 212.58 262.36 219.949 257.006C227.318 251.652 227.795 243.085 232.091 234.588C236.583 225.702 243.233 225.62 245.775 215.993C248.004 207.55 247.309 203.303 243.285 195.553C236.45 182.389 214.735 173.163 214.623 173.116L214.617 173.113L182.045 158.437C181.5 158.191 181.767 157.369 182.352 157.491L217.356 164.8L217.362 164.801C217.476 164.828 240.471 170.129 253.739 163.496C261.55 159.591 264.609 156.564 267.768 148.423C271.369 139.141 266.038 135.166 267.627 125.337C269.146 115.937 273.796 108.726 270.981 100.063C268.166 91.4005 260.166 88.2996 253.412 81.5881C246.349 74.5704 248.326 68.2205 239.956 62.828C232.615 58.0985 228.361 57.4476 219.747 58.8797C205.117 61.312 189.634 79.1098 189.55 79.2055L189.546 79.2103L165.49 105.641C165.088 106.082 164.39 105.575 164.686 105.056L182.429 74.0049L182.432 73.9996C182.495 73.8951 194.64 53.667 192.432 39C191.132 30.3649 189.199 26.52 182.432 21C174.717 14.7063 169.289 18.5484 160.432 14C151.962 9.65015 146.541 3 137.432 3C128.324 3 122.902 9.65015 114.432 14C105.575 18.5484 100.147 14.7063 92.4323 21Z" fill="url(#paint1_radial_5_1452)" fill-opacity="0.6"/>
<path d="M92.4323 21C85.6658 26.52 83.7322 30.3649 82.4323 39C80.2243 53.667 92.3692 73.8951 92.432 73.9996L92.4351 74.0049L110.17 105.041C110.466 105.56 109.768 106.067 109.366 105.625L85.3216 79.1636L85.3175 79.1591C85.2372 79.0667 69.7523 61.2657 55.121 58.8333C46.5068 57.4012 42.2525 58.052 34.9118 62.7815C26.542 68.174 28.5187 74.5239 21.456 81.5416C14.7016 88.2531 6.70167 91.354 3.88699 100.017C1.0723 108.679 5.72169 115.89 7.24122 125.29C8.83012 135.119 3.49857 139.094 7.10024 148.377C10.2591 156.518 13.3183 159.545 21.1291 163.449C34.396 170.082 57.387 164.782 57.5058 164.755L57.5118 164.753L92.5133 157.476C93.0983 157.355 93.3653 158.176 92.8206 158.422L60.2214 173.121L60.2158 173.124C60.1021 173.172 38.3881 182.398 31.5535 195.561C27.5296 203.311 26.834 207.559 29.0636 216.001C31.6057 225.628 38.2556 225.71 42.7475 234.596C47.0432 243.094 47.5203 251.66 54.8892 257.014C62.2581 262.368 70.553 260.174 79.9622 261.634C89.801 263.16 91.9342 269.459 101.875 268.902C110.594 268.414 114.418 266.44 120.545 260.218C130.953 249.65 133.017 226.146 133.028 226.025L133.028 226.019L136.923 190.49C136.988 189.896 137.852 189.896 137.917 190.49L141.81 226.01L141.811 226.016C141.821 226.138 143.886 249.641 154.293 260.209C160.42 266.431 164.245 268.405 172.963 268.894C182.904 269.451 185.037 263.152 194.876 261.626C204.285 260.166 212.58 262.36 219.949 257.006C227.318 251.652 227.795 243.085 232.091 234.588C236.583 225.702 243.233 225.62 245.775 215.993C248.004 207.55 247.309 203.303 243.285 195.553C236.45 182.389 214.735 173.163 214.623 173.116L214.617 173.113L182.045 158.437C181.5 158.191 181.767 157.369 182.352 157.491L217.356 164.8L217.362 164.801C217.476 164.828 240.471 170.129 253.739 163.496C261.55 159.591 264.609 156.564 267.768 148.423C271.369 139.141 266.038 135.166 267.627 125.337C269.146 115.937 273.796 108.726 270.981 100.063C268.166 91.4005 260.166 88.2996 253.412 81.5881C246.349 74.5704 248.326 68.2205 239.956 62.828C232.615 58.0985 228.361 57.4476 219.747 58.8797C205.117 61.312 189.634 79.1098 189.55 79.2055L189.546 79.2103L165.49 105.641C165.088 106.082 164.39 105.575 164.686 105.056L182.429 74.0049L182.432 73.9996C182.495 73.8951 194.64 53.667 192.432 39C191.132 30.3649 189.199 26.52 182.432 21C174.717 14.7063 169.289 18.5484 160.432 14C151.962 9.65015 146.541 3 137.432 3C128.324 3 122.902 9.65015 114.432 14C105.575 18.5484 100.147 14.7063 92.4323 21Z" fill="url(#paint2_radial_5_1452)"/>
<path d="M92.4323 21C85.6658 26.52 83.7322 30.3649 82.4323 39C80.2243 53.667 92.3692 73.8951 92.432 73.9996L92.4351 74.0049L110.17 105.041C110.466 105.56 109.768 106.067 109.366 105.625L85.3216 79.1636L85.3175 79.1591C85.2372 79.0667 69.7523 61.2657 55.121 58.8333C46.5068 57.4012 42.2525 58.052 34.9118 62.7815C26.542 68.174 28.5187 74.5239 21.456 81.5416C14.7016 88.2531 6.70167 91.354 3.88699 100.017C1.0723 108.679 5.72169 115.89 7.24122 125.29C8.83012 135.119 3.49857 139.094 7.10024 148.377C10.2591 156.518 13.3183 159.545 21.1291 163.449C34.396 170.082 57.387 164.782 57.5058 164.755L57.5118 164.753L92.5133 157.476C93.0983 157.355 93.3653 158.176 92.8206 158.422L60.2214 173.121L60.2158 173.124C60.1021 173.172 38.3881 182.398 31.5535 195.561C27.5296 203.311 26.834 207.559 29.0636 216.001C31.6057 225.628 38.2556 225.71 42.7475 234.596C47.0432 243.094 47.5203 251.66 54.8892 257.014C62.2581 262.368 70.553 260.174 79.9622 261.634C89.801 263.16 91.9342 269.459 101.875 268.902C110.594 268.414 114.418 266.44 120.545 260.218C130.953 249.65 133.017 226.146 133.028 226.025L133.028 226.019L136.923 190.49C136.988 189.896 137.852 189.896 137.917 190.49L141.81 226.01L141.811 226.016C141.821 226.138 143.886 249.641 154.293 260.209C160.42 266.431 164.245 268.405 172.963 268.894C182.904 269.451 185.037 263.152 194.876 261.626C204.285 260.166 212.58 262.36 219.949 257.006C227.318 251.652 227.795 243.085 232.091 234.588C236.583 225.702 243.233 225.62 245.775 215.993C248.004 207.55 247.309 203.303 243.285 195.553C236.45 182.389 214.735 173.163 214.623 173.116L214.617 173.113L182.045 158.437C181.5 158.191 181.767 157.369 182.352 157.491L217.356 164.8L217.362 164.801C217.476 164.828 240.471 170.129 253.739 163.496C261.55 159.591 264.609 156.564 267.768 148.423C271.369 139.141 266.038 135.166 267.627 125.337C269.146 115.937 273.796 108.726 270.981 100.063C268.166 91.4005 260.166 88.2996 253.412 81.5881C246.349 74.5704 248.326 68.2205 239.956 62.828C232.615 58.0985 228.361 57.4476 219.747 58.8797C205.117 61.312 189.634 79.1098 189.55 79.2055L189.546 79.2103L165.49 105.641C165.088 106.082 164.39 105.575 164.686 105.056L182.429 74.0049L182.432 73.9996C182.495 73.8951 194.64 53.667 192.432 39C191.132 30.3649 189.199 26.52 182.432 21C174.717 14.7063 169.289 18.5484 160.432 14C151.962 9.65015 146.541 3 137.432 3C128.324 3 122.902 9.65015 114.432 14C105.575 18.5484 100.147 14.7063 92.4323 21Z" stroke="black" stroke-width="5"/>
<path d="M48.6748 221.243L47.1895 219.757C46.0643 218.632 45.4321 217.106 45.4321 215.515V164.044C45.4321 159.286 50.8583 156.201 55.2531 158.024C61.7828 160.733 70.4928 163.126 77.9321 161C95.9527 155.851 98.9321 148.5 111.932 142.5C120.172 138.697 131.023 142.326 137.865 145.494C141.341 147.103 141.87 151.563 139.161 154.271L72.1895 221.243C71.0643 222.368 69.5381 223 67.9468 223H52.9174C51.3261 223 49.8 222.368 48.6748 221.243Z" fill="#B3B3B3" stroke="black" stroke-width="5"/>
<path d="M35.4321 56.5147V46.4853C35.4321 44.894 36.0643 43.3679 37.1895 42.2426L38.6748 40.7574C39.8 39.6321 41.3261 39 42.9174 39H112.947C114.538 39 116.064 39.6321 117.189 40.7574L118.675 42.2426C119.8 43.3679 120.432 44.894 120.432 46.4853V56.5147C120.432 58.106 119.8 59.6321 118.675 60.7574L116.468 62.9645C115.805 63.6275 114.905 64 113.968 64C112.015 64 110.432 65.5829 110.432 67.5355V104.515C110.432 109.86 116.895 112.537 120.675 108.757L162.414 67.0178C163.528 65.9041 162.739 64 161.164 64C160.696 64 160.246 63.8138 159.914 63.4822L157.189 60.7574C156.064 59.6321 155.432 58.106 155.432 56.5147V46.4853C155.432 44.894 156.064 43.3679 157.189 42.2426L158.675 40.7574C159.8 39.6321 161.326 39 162.917 39H232.947C234.538 39 236.064 39.6321 237.189 40.7574L238.675 42.2426C239.8 43.3679 240.432 44.894 240.432 46.4853V56.5147C240.432 58.106 239.8 59.6321 238.675 60.7574L237.189 62.2426C236.064 63.3679 234.518 64 232.927 64C231.342 64 229.801 64.627 228.677 65.7442L153.097 140.855C151.218 142.722 148.336 143.141 145.94 142.013C138.564 138.54 122.665 132.005 112.932 135C99.9321 139 94.9321 148.107 78.4321 154C65.2973 158.691 52.1624 149.576 47.3511 145.664C46.0863 144.635 45.4321 143.079 45.4321 141.449V67.5355C45.4321 65.5829 43.8492 64 41.8966 64C40.9589 64 40.0596 63.6275 39.3966 62.9645L37.1895 60.7574C36.0643 59.6321 35.4321 58.106 35.4321 56.5147Z" fill="#B3B3B3" stroke="black" stroke-width="5"/>
<path d="M133.978 141.634L136.045 132.677C136.298 131.581 136.864 130.568 137.659 129.773C138.785 128.647 140.326 128 141.917 128H149.618C150.779 128 151.894 128.462 152.715 129.283C153.783 130.351 154.226 131.894 153.886 133.366L151.819 142.323C151.566 143.419 151 144.432 150.205 145.227C149.08 146.353 147.538 147 145.947 147H138.247C137.085 147 135.971 146.538 135.149 145.717C134.081 144.649 133.638 143.106 133.978 141.634Z" fill="#B3B3B3" stroke="black" stroke-width="5"/>
<path d="M141.828 153H128.555C126.72 153 125.12 154.249 124.675 156.03L124.164 158.074C123.792 159.56 124.916 161 126.448 161C127.97 161 129.092 162.422 128.738 163.902L120.201 199.605C119.299 203.376 122.158 207 126.036 207H139.309C141.144 207 142.744 205.751 143.19 203.97L143.701 201.926C144.072 200.44 142.948 199 141.416 199C139.894 199 138.772 197.578 139.126 196.098L147.664 160.395C148.566 156.624 145.706 153 141.828 153Z" fill="#B3B3B3" stroke="black" stroke-width="5"/>
<path d="M158.805 163.885L151.014 199.725C150.201 203.465 153.049 207 156.877 207H170.309C172.144 207 173.744 205.751 174.19 203.97L174.71 201.887C175.077 200.421 173.968 199 172.456 199C170.93 199 169.818 197.553 170.211 196.078L176.244 173.454C176.945 170.828 179.323 169 182.042 169H183.649C187.583 169 190.453 172.722 189.451 176.527L183.413 199.473C182.412 203.278 185.281 207 189.215 207H201.578C203.824 207 205.763 205.427 206.226 203.229L206.835 200.336C207.143 198.874 206.028 197.5 204.534 197.5C202.977 197.5 201.85 196.013 202.271 194.513L208.203 173.378C208.93 170.789 211.291 169 213.98 169H215.649C219.583 169 222.453 172.722 221.451 176.527L215.413 199.473C214.412 203.278 217.281 207 221.215 207H233.578C235.824 207 237.763 205.427 238.226 203.229L238.832 200.349C239.142 198.88 238.021 197.5 236.521 197.5C234.965 197.5 233.834 196.021 234.242 194.519L243.4 160.799C244.027 158.492 243.225 156.034 241.358 154.541L241.076 154.315C240.012 153.464 238.69 153 237.327 153H227.249C226.064 153 224.906 153.351 223.921 154.008L220.944 155.992C219.958 156.649 218.8 157 217.615 157H215.668C214.298 157 213.045 156.226 212.432 155C211.819 153.774 210.566 153 209.196 153H195.249C194.064 153 192.906 153.351 191.921 154.008L188.944 155.992C187.958 156.649 186.8 157 185.615 157H183.932C182.358 157 180.876 156.259 179.932 155C178.988 153.741 177.506 153 175.932 153H158.555C156.72 153 155.12 154.249 154.675 156.03L154.171 158.043C153.796 159.545 154.932 161 156.48 161C157.998 161 159.127 162.402 158.805 163.885Z" fill="#B3B3B3" stroke="black" stroke-width="5"/>
<defs>
<radialGradient id="paint0_radial_5_1452" cx="0" cy="0" r="1" gradientUnits="userSpaceOnUse" gradientTransform="translate(137.434 135.968) rotate(90.0006) scale(187.532 189.598)">
<stop stop-color="#FFB9BC"/>
<stop offset="1" stop-color="#F7E6FF"/>
</radialGradient>
<radialGradient id="paint1_radial_5_1452" cx="0" cy="0" r="1" gradientUnits="userSpaceOnUse" gradientTransform="translate(137 142.5) rotate(90) scale(137.5 139.015)">
<stop stop-color="#FF0000" stop-opacity="0.05"/>
<stop offset="0.77" stop-color="#FF9D9D" stop-opacity="0.075"/>
<stop offset="1" stop-color="#FF5757"/>
</radialGradient>
<radialGradient id="paint2_radial_5_1452" cx="0" cy="0" r="1" gradientUnits="userSpaceOnUse" gradientTransform="translate(137.434 135.968) rotate(90) scale(132.968 134.434)">
<stop stop-color="#EBFF00"/>
<stop offset="0.440949" stop-color="#EBFF00" stop-opacity="0"/>
</radialGradient>
</defs>
</svg>
