<svg width="290" height="290" viewBox="0 0 290 290" fill="none" xmlns="http://www.w3.org/2000/svg">
<path d="M5 91.152C5 88.4998 6.05357 85.9563 7.92893 84.0809L84.081 7.92893C85.9563 6.05357 88.4999 5 91.152 5H198.848C201.5 5 204.044 6.05357 205.919 7.92893L282.071 84.0809C283.946 85.9563 285 88.4999 285 91.1521L284.998 198.848C284.998 201.5 283.945 204.043 282.069 205.919L205.919 282.071C204.044 283.946 201.5 285 198.848 285L91.1519 284.998C88.4998 284.998 85.9563 283.945 84.081 282.069L7.92901 205.919C6.0536 204.044 5 201.5 5 198.848V91.152Z" stroke="#3A4A9E" stroke-width="10"/>
<path d="M5 91.152C5 88.4998 6.05357 85.9563 7.92893 84.0809L84.081 7.92893C85.9563 6.05357 88.4999 5 91.152 5H198.848C201.5 5 204.044 6.05357 205.919 7.92893L282.071 84.0809C283.946 85.9563 285 88.4999 285 91.1521L284.998 198.848C284.998 201.5 283.945 204.043 282.069 205.919L205.919 282.071C204.044 283.946 201.5 285 198.848 285L91.1519 284.998C88.4998 284.998 85.9563 283.945 84.081 282.069L7.92901 205.919C6.0536 204.044 5 201.5 5 198.848V91.152Z" fill="white"/>
<path d="M22.0833 96.0416H86.0416C91.5645 96.0416 96.0416 91.5645 96.0416 86.0416V22.0833" stroke="#D94040" stroke-width="12"/>
<path d="M267.917 96.0416H203.958C198.436 96.0416 193.958 91.5645 193.958 86.0416V22.0833" stroke="#D94040" stroke-width="12"/>
<path d="M267.917 193.958H203.958C198.436 193.958 193.958 198.435 193.958 203.958V267.917" stroke="#D94040" stroke-width="12"/>
<path d="M22.0833 193.958H86.0416C91.5645 193.958 96.0416 198.435 96.0416 203.958L96.0416 267.917" stroke="#D94040" stroke-width="12"/>
<path d="M20 97.3652C20 94.7131 21.0536 92.1695 22.9289 90.2942L90.2942 22.9289C92.1695 21.0536 94.7131 20 97.3652 20H192.635C195.287 20 197.83 21.0536 199.706 22.9289L267.071 90.2941C268.946 92.1695 270 94.7131 270 97.3653L269.998 192.635C269.998 195.287 268.945 197.83 267.07 199.706L199.706 267.071C197.83 268.946 195.287 270 192.634 270L97.3651 269.998C94.713 269.998 92.1696 268.945 90.2943 267.07L22.929 199.706C21.0536 197.83 20 195.287 20 192.635V97.3652Z" stroke="#D94040" stroke-width="12"/>
<path d="M112.083 60.625H69.5833C64.0604 60.625 59.5833 65.1022 59.5833 70.625V113.125C59.5833 118.648 64.0604 123.125 69.5833 123.125H112.083C117.606 123.125 122.083 118.648 122.083 113.125V70.625C122.083 65.1022 117.606 60.625 112.083 60.625Z" stroke="#D94040" stroke-width="12"/>
<path d="M176.667 103.333H113.333C107.81 103.333 103.333 107.81 103.333 113.333V176.667C103.333 182.189 107.81 186.667 113.333 186.667H176.667C182.189 186.667 186.667 182.189 186.667 176.667V113.333C186.667 107.81 182.189 103.333 176.667 103.333Z" stroke="#D94040" stroke-width="12"/>
<path d="M220.417 60.625H177.917C172.394 60.625 167.917 65.1022 167.917 70.625V113.125C167.917 118.648 172.394 123.125 177.917 123.125H220.417C225.94 123.125 230.417 118.648 230.417 113.125V70.625C230.417 65.1022 225.94 60.625 220.417 60.625Z" stroke="#D94040" stroke-width="12"/>
<path d="M112.083 166.875H69.5833C64.0604 166.875 59.5833 171.352 59.5833 176.875V219.375C59.5833 224.898 64.0604 229.375 69.5833 229.375H112.083C117.606 229.375 122.083 224.898 122.083 219.375V176.875C122.083 171.352 117.606 166.875 112.083 166.875Z" stroke="#D94040" stroke-width="12"/>
<path d="M220.417 166.875H177.917C172.394 166.875 167.917 171.352 167.917 176.875V219.375C167.917 224.898 172.394 229.375 177.917 229.375H220.417C225.94 229.375 230.417 224.898 230.417 219.375V176.875C230.417 171.352 225.94 166.875 220.417 166.875Z" stroke="#D94040" stroke-width="12"/>
<path d="M39 69.4645V61.5355C39 59.2718 39.8993 57.1007 41.5 55.5C43.1007 53.8993 45.2718 53 47.5355 53H115.464C117.728 53 119.899 53.8993 121.5 55.5C123.101 57.1007 124 59.2718 124 61.5355V69.4645C124 71.7282 123.101 73.8993 121.5 75.5L120.036 76.9645C119.372 77.6275 118.473 78 117.536 78C115.583 78 114 79.5829 114 81.5355V123.277C114 126.865 118.338 128.662 120.875 126.125L165.982 81.0178C167.096 79.9041 166.307 78 164.732 78C164.263 78 163.814 77.8138 163.482 77.4822L161.5 75.5C159.899 73.8993 159 71.7282 159 69.4645V61.5355C159 59.2718 159.899 57.1007 161.5 55.5C163.101 53.8993 165.272 53 167.536 53H235.464C237.728 53 239.899 53.8993 241.5 55.5C243.101 57.1007 244 59.2718 244 61.5355V69.4645C244 71.7282 243.101 73.8993 241.5 75.5L240.776 76.2243C239.639 77.3613 238.097 78 236.489 78C234.894 78 233.364 78.6283 232.229 79.7488L79.8422 230.231C76.099 233.927 71.0501 236 65.7893 236H57.5355C55.2718 236 53.1007 235.101 51.5 233.5C49.8993 231.899 49 229.728 49 227.464V158V81.5355C49 79.5829 47.4171 78 45.4645 78C44.5268 78 43.6275 77.6275 42.9645 76.9645L41.5 75.5C39.8993 73.8993 39 71.7282 39 69.4645Z" fill="white" stroke="black" stroke-width="8"/>
<path d="M139.546 163.634L141.61 154.691C141.865 153.586 142.425 152.575 143.227 151.773C144.362 150.638 145.902 150 147.507 150H155.185C156.347 150 157.462 150.462 158.283 151.283C159.351 152.351 159.794 153.894 159.454 155.366L157.39 164.309C157.135 165.414 156.575 166.425 155.773 167.227C154.638 168.362 153.098 169 151.493 169H143.815C142.653 169 141.538 168.538 140.717 167.717C139.649 166.649 139.206 165.106 139.546 163.634Z" fill="white" stroke="black" stroke-width="8"/>
<path d="M140.149 175H134.123C132.288 175 130.688 176.249 130.243 178.03L129.731 180.074C129.36 181.56 130.484 183 132.016 183C133.538 183 134.66 184.422 134.306 185.902L127.454 214.556C125.692 221.923 131.277 229 138.851 229H144.877C146.712 229 148.312 227.751 148.757 225.97L149.269 223.926C149.64 222.44 148.516 221 146.984 221C145.462 221 144.34 219.578 144.694 218.098L151.546 189.444C153.308 182.077 147.723 175 140.149 175Z" fill="white" stroke="black" stroke-width="8"/>
<path d="M164.373 185.885L158.129 214.606C156.52 222.006 162.158 229 169.73 229H175.877C177.712 229 179.312 227.751 179.757 225.97L180.278 223.887C180.645 222.421 179.536 221 178.024 221C176.498 221 175.386 219.553 175.779 218.078L181.658 196.032C182.449 193.064 185.137 191 188.207 191C192.652 191 195.893 195.205 194.762 199.503L190.758 214.721C188.858 221.939 194.302 229 201.765 229H207.146C209.392 229 211.331 227.427 211.794 225.229L212.403 222.336C212.711 220.874 211.596 219.5 210.102 219.5C208.545 219.5 207.417 218.013 207.838 216.513L213.605 195.971C214.43 193.032 217.11 191 220.163 191C224.63 191 227.888 195.226 226.751 199.546L222.758 214.721C220.858 221.939 226.302 229 233.765 229H239.146C241.392 229 243.331 227.427 243.794 225.229L244.4 222.349C244.709 220.88 243.589 219.5 242.089 219.5C240.533 219.5 239.402 218.021 239.81 216.519L248.906 183.026C249.57 180.582 248.72 177.976 246.742 176.394C245.614 175.491 244.213 175 242.769 175H234.606C232.255 175 229.956 175.696 228 177L226.642 177.906C225.571 178.619 224.314 179 223.027 179H221.236C219.866 179 218.613 178.226 218 177C217.387 175.774 216.134 175 214.764 175H202.606C200.255 175 197.956 175.696 196 177L194.883 177.745C193.655 178.563 192.213 179 190.737 179H189.5C187.926 179 186.444 178.259 185.5 177C184.556 175.741 183.074 175 181.5 175H164.123C162.288 175 160.688 176.249 160.243 178.03L159.739 180.043C159.364 181.545 160.5 183 162.048 183C163.565 183 164.695 184.402 164.373 185.885Z" fill="white" stroke="black" stroke-width="8"/>
<path d="M215.981 154.5V139.126C215.981 138.855 215.762 138.636 215.491 138.636C215.22 138.636 215 138.416 215 138.145V137.818C215 137.366 215.366 137 215.818 137H221.051C221.503 137 221.869 137.366 221.869 137.818V138.145C221.869 138.416 221.649 138.636 221.379 138.636C221.108 138.636 220.888 138.855 220.888 139.126V140.023C220.888 141.282 222.43 141.89 223.289 140.969L225.001 139.136C225.178 138.946 225.043 138.636 224.783 138.636C224.619 138.636 224.486 138.502 224.486 138.338V137.818C224.486 137.366 224.852 137 225.304 137H230.537C230.989 137 231.355 137.366 231.355 137.818V137.949C231.355 138.328 231.048 138.636 230.669 138.636C230.48 138.636 230.3 138.713 230.171 138.849L225.285 143.992C224.63 144.682 224.551 145.738 225.096 146.517L230.835 154.715C230.956 154.888 231.153 154.991 231.364 154.991C231.72 154.991 232.009 155.28 232.009 155.636V155.808C232.009 156.26 231.643 156.626 231.192 156.626H225.958C225.506 156.626 225.14 156.26 225.14 155.808V155.325C225.14 155.14 225.29 154.991 225.475 154.991C225.746 154.991 225.904 154.684 225.747 154.463L221.278 148.161C221.157 147.99 220.888 148.076 220.888 148.285V154.5C220.888 154.771 221.108 154.991 221.379 154.991C221.649 154.991 221.869 155.21 221.869 155.481V155.808C221.869 156.26 221.503 156.626 221.051 156.626H215.818C215.366 156.626 215 156.26 215 155.808V155.481C215 155.21 215.22 154.991 215.491 154.991C215.762 154.991 215.981 154.771 215.981 154.5Z" fill="black"/>
<path fill-rule="evenodd" clip-rule="evenodd" d="M250 142.397C250 138.655 245.947 137.319 244.974 137.053C244.836 137.015 244.694 137 244.55 137L235.972 137C234.867 137 233.972 137.895 233.972 139V154.5C233.972 154.771 233.752 154.991 233.481 154.991V154.991C233.21 154.991 232.991 155.21 232.991 155.481V155.808C232.991 156.26 233.357 156.626 233.808 156.626H239.042C239.494 156.626 239.86 156.26 239.86 155.808V155.481C239.86 155.21 239.64 154.991 239.369 154.991V154.991C239.098 154.991 238.878 154.771 238.878 154.5V149.589C238.878 149.14 239.243 148.776 239.692 148.776V148.776C239.969 148.776 240.227 148.917 240.377 149.151L243.77 154.456C243.918 154.688 243.752 154.991 243.478 154.991V154.991C243.286 154.991 243.131 155.146 243.131 155.338V155.808C243.131 156.26 243.497 156.626 243.949 156.626H249.031C249.566 156.626 250 156.192 250 155.657V155.325C250 154.973 249.715 154.688 249.363 154.688V154.688C249.148 154.688 248.948 154.58 248.83 154.4L246.744 151.217C245.919 149.959 246.766 148.108 247.939 147.167C249.03 146.291 250 144.829 250 142.397ZM240.841 140.925C239.757 140.925 238.878 141.804 238.878 142.888V142.888C238.878 143.972 239.757 144.85 240.841 144.85H243.384C243.384 144.85 243.384 144.85 243.384 144.85C243.384 144.85 245.093 144.85 245.093 142.888C245.093 140.925 243.384 140.925 243.384 140.925C243.384 140.925 243.384 140.925 243.384 140.925H240.841Z" fill="black"/>
</svg>
